<mxfile host="app.diagrams.net" agent="Mozilla/5.0 (Macintosh; Intel Mac OS X 10_15_7) AppleWebKit/605.1.15 (KHTML, like Gecko) Version/17.6 Safari/605.1.15" version="27.0.6">
  <diagram name="Side-1" id="EcpfBlRpPGGbIzdA--E7">
    <mxGraphModel dx="395" dy="345" grid="1" gridSize="10" guides="1" tooltips="1" connect="1" arrows="1" fold="1" page="1" pageScale="1" pageWidth="827" pageHeight="1169" math="0" shadow="0">
      <root>
        <mxCell id="0" />
        <mxCell id="1" parent="0" />
        <mxCell id="5JxM0j5yGuvOeoseSYfZ-1" style="rounded=0;orthogonalLoop=1;jettySize=auto;html=1;exitX=0;exitY=0.75;exitDx=0;exitDy=0;exitPerimeter=0;entryX=0.015;entryY=0.015;entryDx=0;entryDy=0;entryPerimeter=0;strokeColor=light-dark(#000000,#FF0606);" parent="1" target="5JxM0j5yGuvOeoseSYfZ-4" edge="1">
          <mxGeometry relative="1" as="geometry">
            <mxPoint x="400" y="170" as="sourcePoint" />
          </mxGeometry>
        </mxCell>
        <mxCell id="5JxM0j5yGuvOeoseSYfZ-2" value="Port1" style="edgeLabel;html=1;align=center;verticalAlign=middle;resizable=0;points=[];" parent="5JxM0j5yGuvOeoseSYfZ-1" vertex="1" connectable="0">
          <mxGeometry x="-0.6655" relative="1" as="geometry">
            <mxPoint x="-12" y="4" as="offset" />
          </mxGeometry>
        </mxCell>
        <mxCell id="5JxM0j5yGuvOeoseSYfZ-3" value="Te 0/0" style="edgeLabel;html=1;align=center;verticalAlign=middle;resizable=0;points=[];" parent="5JxM0j5yGuvOeoseSYfZ-1" vertex="1" connectable="0">
          <mxGeometry x="0.3916" relative="1" as="geometry">
            <mxPoint as="offset" />
          </mxGeometry>
        </mxCell>
        <mxCell id="5JxM0j5yGuvOeoseSYfZ-4" value="" style="sketch=0;points=[[0.015,0.015,0],[0.985,0.015,0],[0.985,0.985,0],[0.015,0.985,0],[0.25,0,0],[0.5,0,0],[0.75,0,0],[1,0.25,0],[1,0.5,0],[1,0.75,0],[0.75,1,0],[0.5,1,0],[0.25,1,0],[0,0.75,0],[0,0.5,0],[0,0.25,0]];verticalLabelPosition=bottom;html=1;verticalAlign=top;aspect=fixed;align=center;pointerEvents=1;shape=mxgraph.cisco19.rect;prIcon=l2_switch;fillColor=#FAFAFA;strokeColor=#005073;" parent="1" vertex="1">
          <mxGeometry x="290" y="282" width="50" height="50" as="geometry" />
        </mxCell>
        <mxCell id="5JxM0j5yGuvOeoseSYfZ-5" value="" style="sketch=0;points=[[0.015,0.015,0],[0.985,0.015,0],[0.985,0.985,0],[0.015,0.985,0],[0.25,0,0],[0.5,0,0],[0.75,0,0],[1,0.25,0],[1,0.5,0],[1,0.75,0],[0.75,1,0],[0.5,1,0],[0.25,1,0],[0,0.75,0],[0,0.5,0],[0,0.25,0]];verticalLabelPosition=bottom;html=1;verticalAlign=top;aspect=fixed;align=center;pointerEvents=1;shape=mxgraph.cisco19.rect;prIcon=l2_switch;fillColor=#FAFAFA;strokeColor=#005073;" parent="1" vertex="1">
          <mxGeometry x="504" y="282" width="50" height="50" as="geometry" />
        </mxCell>
        <mxCell id="5JxM0j5yGuvOeoseSYfZ-6" value="" style="sketch=0;points=[[0.015,0.015,0],[0.985,0.015,0],[0.985,0.985,0],[0.015,0.985,0],[0.25,0,0],[0.5,0,0],[0.75,0,0],[1,0.25,0],[1,0.5,0],[1,0.75,0],[0.75,1,0],[0.5,1,0],[0.25,1,0],[0,0.75,0],[0,0.5,0],[0,0.25,0]];verticalLabelPosition=bottom;html=1;verticalAlign=top;aspect=fixed;align=center;pointerEvents=1;shape=mxgraph.cisco19.rect;prIcon=l2_switch;fillColor=#FAFAFA;strokeColor=#005073;" parent="1" vertex="1">
          <mxGeometry x="400" y="392" width="50" height="50" as="geometry" />
        </mxCell>
        <mxCell id="5JxM0j5yGuvOeoseSYfZ-7" style="rounded=0;orthogonalLoop=1;jettySize=auto;html=1;exitX=0.25;exitY=1;exitDx=0;exitDy=0;exitPerimeter=0;entryX=0.985;entryY=0.015;entryDx=0;entryDy=0;entryPerimeter=0;strokeColor=light-dark(#000000,#FF0606);" parent="1" target="5JxM0j5yGuvOeoseSYfZ-4" edge="1">
          <mxGeometry relative="1" as="geometry">
            <mxPoint x="413" y="182" as="sourcePoint" />
          </mxGeometry>
        </mxCell>
        <mxCell id="5JxM0j5yGuvOeoseSYfZ-8" value="Port 2" style="edgeLabel;html=1;align=center;verticalAlign=middle;resizable=0;points=[];" parent="5JxM0j5yGuvOeoseSYfZ-7" vertex="1" connectable="0">
          <mxGeometry x="-0.8333" relative="1" as="geometry">
            <mxPoint as="offset" />
          </mxGeometry>
        </mxCell>
        <mxCell id="5JxM0j5yGuvOeoseSYfZ-9" value="Te 0/1" style="edgeLabel;html=1;align=center;verticalAlign=middle;resizable=0;points=[];" parent="5JxM0j5yGuvOeoseSYfZ-7" vertex="1" connectable="0">
          <mxGeometry x="0.833" relative="1" as="geometry">
            <mxPoint as="offset" />
          </mxGeometry>
        </mxCell>
        <mxCell id="5JxM0j5yGuvOeoseSYfZ-10" style="rounded=0;orthogonalLoop=1;jettySize=auto;html=1;entryX=0.985;entryY=0.015;entryDx=0;entryDy=0;entryPerimeter=0;strokeColor=light-dark(#000000,#33FF33);exitX=1;exitY=0.75;exitDx=0;exitDy=0;exitPerimeter=0;" parent="1" target="5JxM0j5yGuvOeoseSYfZ-5" edge="1">
          <mxGeometry relative="1" as="geometry">
            <mxPoint x="450" y="170" as="sourcePoint" />
          </mxGeometry>
        </mxCell>
        <mxCell id="5JxM0j5yGuvOeoseSYfZ-11" value="Port 4" style="edgeLabel;html=1;align=center;verticalAlign=middle;resizable=0;points=[];" parent="5JxM0j5yGuvOeoseSYfZ-10" vertex="1" connectable="0">
          <mxGeometry x="-0.8521" relative="1" as="geometry">
            <mxPoint as="offset" />
          </mxGeometry>
        </mxCell>
        <mxCell id="5JxM0j5yGuvOeoseSYfZ-12" value="Te1/1" style="edgeLabel;html=1;align=center;verticalAlign=middle;resizable=0;points=[];" parent="5JxM0j5yGuvOeoseSYfZ-10" vertex="1" connectable="0">
          <mxGeometry x="0.6888" y="-1" relative="1" as="geometry">
            <mxPoint as="offset" />
          </mxGeometry>
        </mxCell>
        <mxCell id="5JxM0j5yGuvOeoseSYfZ-13" style="rounded=0;orthogonalLoop=1;jettySize=auto;html=1;exitX=0.75;exitY=1;exitDx=0;exitDy=0;exitPerimeter=0;entryX=0.015;entryY=0.015;entryDx=0;entryDy=0;entryPerimeter=0;strokeColor=light-dark(#000000,#33FF33);" parent="1" edge="1">
          <mxGeometry relative="1" as="geometry">
            <mxPoint x="438" y="182" as="sourcePoint" />
            <mxPoint x="503.3" y="282.7500000000001" as="targetPoint" />
          </mxGeometry>
        </mxCell>
        <mxCell id="5JxM0j5yGuvOeoseSYfZ-14" value="Port 3" style="edgeLabel;html=1;align=center;verticalAlign=middle;resizable=0;points=[];" parent="5JxM0j5yGuvOeoseSYfZ-13" vertex="1" connectable="0">
          <mxGeometry x="-0.8689" relative="1" as="geometry">
            <mxPoint as="offset" />
          </mxGeometry>
        </mxCell>
        <mxCell id="5JxM0j5yGuvOeoseSYfZ-15" value="Te1/0" style="edgeLabel;html=1;align=center;verticalAlign=middle;resizable=0;points=[];" parent="5JxM0j5yGuvOeoseSYfZ-13" vertex="1" connectable="0">
          <mxGeometry x="0.785" y="1" relative="1" as="geometry">
            <mxPoint as="offset" />
          </mxGeometry>
        </mxCell>
        <mxCell id="5JxM0j5yGuvOeoseSYfZ-16" style="edgeStyle=orthogonalEdgeStyle;rounded=0;orthogonalLoop=1;jettySize=auto;html=1;exitX=0.25;exitY=1;exitDx=0;exitDy=0;exitPerimeter=0;entryX=-0.043;entryY=0.595;entryDx=0;entryDy=0;entryPerimeter=0;strokeColor=light-dark(#000000,#FF0808);" parent="1" source="5JxM0j5yGuvOeoseSYfZ-4" target="CF72kzbCDmNTBir-cZuD-3" edge="1">
          <mxGeometry relative="1" as="geometry">
            <Array as="points">
              <mxPoint x="310" y="332" />
              <mxPoint x="310" y="500" />
            </Array>
          </mxGeometry>
        </mxCell>
        <mxCell id="CF72kzbCDmNTBir-cZuD-6" value="Gi0/44" style="edgeLabel;html=1;align=center;verticalAlign=middle;resizable=0;points=[];" vertex="1" connectable="0" parent="5JxM0j5yGuvOeoseSYfZ-16">
          <mxGeometry x="0.7647" y="-1" relative="1" as="geometry">
            <mxPoint as="offset" />
          </mxGeometry>
        </mxCell>
        <mxCell id="CF72kzbCDmNTBir-cZuD-9" value="Te0/3" style="edgeLabel;html=1;align=center;verticalAlign=middle;resizable=0;points=[];" vertex="1" connectable="0" parent="5JxM0j5yGuvOeoseSYfZ-16">
          <mxGeometry x="-0.8405" y="-2" relative="1" as="geometry">
            <mxPoint as="offset" />
          </mxGeometry>
        </mxCell>
        <mxCell id="5JxM0j5yGuvOeoseSYfZ-17" style="edgeStyle=orthogonalEdgeStyle;rounded=0;orthogonalLoop=1;jettySize=auto;html=1;exitX=0.25;exitY=1;exitDx=0;exitDy=0;exitPerimeter=0;entryX=1;entryY=0.25;entryDx=0;entryDy=0;entryPerimeter=0;strokeColor=light-dark(#000000,#66FF66);" parent="1" source="5JxM0j5yGuvOeoseSYfZ-5" target="5JxM0j5yGuvOeoseSYfZ-6" edge="1">
          <mxGeometry relative="1" as="geometry" />
        </mxCell>
        <mxCell id="CF72kzbCDmNTBir-cZuD-4" value="&lt;span style=&quot;caret-color: rgba(0, 0, 0, 0); color: rgba(0, 0, 0, 0); font-family: monospace; font-size: 0px; text-align: start; background-color: rgb(27, 29, 30);&quot;&gt;%3CmxGraphModel%3E%3Croot%3E%3CmxCell%20id%3D%220%22%2F%3E%3CmxCell%20id%3D%221%22%20parent%3D%220%22%2F%3E%3CmxCell%20id%3D%222%22%20value%3D%22Gi%200%2F44%26amp%3Bnbsp%3B%22%20style%3D%22edgeLabel%3Bhtml%3D1%3Balign%3Dcenter%3BverticalAlign%3Dmiddle%3Bresizable%3D0%3Bpoints%3D%5B%5D%3B%22%20vertex%3D%221%22%20connectable%3D%220%22%20parent%3D%221%22%3E%3CmxGeometry%20x%3D%22355.5238095238095%22%20y%3D%22420.9999999999999%22%20as%3D%22geometry%22%2F%3E%3C%2FmxCell%3E%3C%2Froot%3E%3C%2FmxGraphModel%3E&lt;/span&gt;" style="edgeLabel;html=1;align=center;verticalAlign=middle;resizable=0;points=[];" vertex="1" connectable="0" parent="5JxM0j5yGuvOeoseSYfZ-17">
          <mxGeometry x="0.5925" relative="1" as="geometry">
            <mxPoint as="offset" />
          </mxGeometry>
        </mxCell>
        <mxCell id="CF72kzbCDmNTBir-cZuD-5" value="Gi 0 / 45" style="edgeLabel;html=1;align=center;verticalAlign=middle;resizable=0;points=[];" vertex="1" connectable="0" parent="5JxM0j5yGuvOeoseSYfZ-17">
          <mxGeometry x="0.613" relative="1" as="geometry">
            <mxPoint as="offset" />
          </mxGeometry>
        </mxCell>
        <mxCell id="CF72kzbCDmNTBir-cZuD-10" value="Te1/2" style="edgeLabel;html=1;align=center;verticalAlign=middle;resizable=0;points=[];" vertex="1" connectable="0" parent="5JxM0j5yGuvOeoseSYfZ-17">
          <mxGeometry x="-0.8404" y="2" relative="1" as="geometry">
            <mxPoint as="offset" />
          </mxGeometry>
        </mxCell>
        <mxCell id="5JxM0j5yGuvOeoseSYfZ-18" value="Te1/3" style="edgeStyle=orthogonalEdgeStyle;rounded=0;orthogonalLoop=1;jettySize=auto;html=1;exitX=0.5;exitY=1;exitDx=0;exitDy=0;exitPerimeter=0;entryX=1;entryY=0.5;entryDx=0;entryDy=0;entryPerimeter=0;strokeColor=light-dark(#000000,#66FF66);" parent="1" source="5JxM0j5yGuvOeoseSYfZ-5" edge="1" target="CF72kzbCDmNTBir-cZuD-3">
          <mxGeometry x="-0.686" y="1" relative="1" as="geometry">
            <mxPoint x="450" y="510" as="targetPoint" />
            <Array as="points">
              <mxPoint x="550" y="332" />
              <mxPoint x="550" y="495" />
            </Array>
            <mxPoint as="offset" />
          </mxGeometry>
        </mxCell>
        <mxCell id="CF72kzbCDmNTBir-cZuD-7" value="Gi0/45" style="edgeLabel;html=1;align=center;verticalAlign=middle;resizable=0;points=[];" vertex="1" connectable="0" parent="5JxM0j5yGuvOeoseSYfZ-18">
          <mxGeometry x="0.7383" y="-2" relative="1" as="geometry">
            <mxPoint as="offset" />
          </mxGeometry>
        </mxCell>
        <mxCell id="5JxM0j5yGuvOeoseSYfZ-19" style="edgeStyle=orthogonalEdgeStyle;rounded=0;orthogonalLoop=1;jettySize=auto;html=1;exitX=0.75;exitY=1;exitDx=0;exitDy=0;exitPerimeter=0;strokeColor=light-dark(#000000,#FF0808);entryX=0;entryY=0.5;entryDx=0;entryDy=0;entryPerimeter=0;" parent="1" source="5JxM0j5yGuvOeoseSYfZ-4" edge="1" target="5JxM0j5yGuvOeoseSYfZ-6">
          <mxGeometry relative="1" as="geometry">
            <mxPoint x="390" y="410" as="targetPoint" />
            <Array as="points">
              <mxPoint x="340" y="332" />
              <mxPoint x="340" y="421" />
              <mxPoint x="390" y="421" />
              <mxPoint x="390" y="417" />
            </Array>
          </mxGeometry>
        </mxCell>
        <mxCell id="5JxM0j5yGuvOeoseSYfZ-20" value="Te0/2" style="edgeLabel;html=1;align=center;verticalAlign=middle;resizable=0;points=[];" parent="5JxM0j5yGuvOeoseSYfZ-19" vertex="1" connectable="0">
          <mxGeometry x="-0.8194" y="-1" relative="1" as="geometry">
            <mxPoint y="7" as="offset" />
          </mxGeometry>
        </mxCell>
        <mxCell id="CF72kzbCDmNTBir-cZuD-2" value="Gi 0/44&amp;nbsp;" style="edgeLabel;html=1;align=center;verticalAlign=middle;resizable=0;points=[];" vertex="1" connectable="0" parent="5JxM0j5yGuvOeoseSYfZ-19">
          <mxGeometry x="0.4552" relative="1" as="geometry">
            <mxPoint as="offset" />
          </mxGeometry>
        </mxCell>
        <mxCell id="5JxM0j5yGuvOeoseSYfZ-21" value="Stack" style="rounded=0;orthogonalLoop=1;jettySize=auto;html=1;entryX=0;entryY=0.5;entryDx=0;entryDy=0;entryPerimeter=0;strokeColor=light-dark(#000000,#A680B8);" parent="1" source="5JxM0j5yGuvOeoseSYfZ-4" target="5JxM0j5yGuvOeoseSYfZ-5" edge="1">
          <mxGeometry relative="1" as="geometry" />
        </mxCell>
        <mxCell id="5JxM0j5yGuvOeoseSYfZ-22" value="1/45" style="edgeLabel;html=1;align=center;verticalAlign=middle;resizable=0;points=[];" parent="5JxM0j5yGuvOeoseSYfZ-21" vertex="1" connectable="0">
          <mxGeometry x="0.6793" y="3" relative="1" as="geometry">
            <mxPoint as="offset" />
          </mxGeometry>
        </mxCell>
        <mxCell id="5JxM0j5yGuvOeoseSYfZ-23" value="0/47" style="edgeLabel;html=1;align=center;verticalAlign=middle;resizable=0;points=[];" parent="5JxM0j5yGuvOeoseSYfZ-21" vertex="1" connectable="0">
          <mxGeometry x="-0.8271" y="-1" relative="1" as="geometry">
            <mxPoint as="offset" />
          </mxGeometry>
        </mxCell>
        <mxCell id="5JxM0j5yGuvOeoseSYfZ-24" style="rounded=0;orthogonalLoop=1;jettySize=auto;html=1;exitX=0.985;exitY=0.985;exitDx=0;exitDy=0;exitPerimeter=0;entryX=0.015;entryY=0.985;entryDx=0;entryDy=0;entryPerimeter=0;strokeColor=light-dark(#000000,#A680B8);" parent="1" source="5JxM0j5yGuvOeoseSYfZ-4" target="5JxM0j5yGuvOeoseSYfZ-5" edge="1">
          <mxGeometry relative="1" as="geometry" />
        </mxCell>
        <mxCell id="5JxM0j5yGuvOeoseSYfZ-25" value="Stack" style="edgeLabel;html=1;align=center;verticalAlign=middle;resizable=0;points=[];" parent="5JxM0j5yGuvOeoseSYfZ-24" vertex="1" connectable="0">
          <mxGeometry x="0.005" relative="1" as="geometry">
            <mxPoint as="offset" />
          </mxGeometry>
        </mxCell>
        <mxCell id="5JxM0j5yGuvOeoseSYfZ-26" value="0/45" style="edgeLabel;html=1;align=center;verticalAlign=middle;resizable=0;points=[];" parent="5JxM0j5yGuvOeoseSYfZ-24" vertex="1" connectable="0">
          <mxGeometry x="-0.8338" y="1" relative="1" as="geometry">
            <mxPoint as="offset" />
          </mxGeometry>
        </mxCell>
        <mxCell id="5JxM0j5yGuvOeoseSYfZ-27" value="1/47" style="edgeLabel;html=1;align=center;verticalAlign=middle;resizable=0;points=[];" parent="5JxM0j5yGuvOeoseSYfZ-24" vertex="1" connectable="0">
          <mxGeometry x="0.6945" relative="1" as="geometry">
            <mxPoint as="offset" />
          </mxGeometry>
        </mxCell>
        <mxCell id="CF72kzbCDmNTBir-cZuD-3" value="" style="sketch=0;points=[[0.015,0.015,0],[0.985,0.015,0],[0.985,0.985,0],[0.015,0.985,0],[0.25,0,0],[0.5,0,0],[0.75,0,0],[1,0.25,0],[1,0.5,0],[1,0.75,0],[0.75,1,0],[0.5,1,0],[0.25,1,0],[0,0.75,0],[0,0.5,0],[0,0.25,0]];verticalLabelPosition=bottom;html=1;verticalAlign=top;aspect=fixed;align=center;pointerEvents=1;shape=mxgraph.cisco19.rect;prIcon=l2_switch;fillColor=#FAFAFA;strokeColor=#005073;" vertex="1" parent="1">
          <mxGeometry x="400" y="470" width="50" height="50" as="geometry" />
        </mxCell>
        <mxCell id="CF72kzbCDmNTBir-cZuD-11" value="" style="sketch=0;points=[[0.015,0.015,0],[0.985,0.015,0],[0.985,0.985,0],[0.015,0.985,0],[0.25,0,0],[0.5,0,0],[0.75,0,0],[1,0.25,0],[1,0.5,0],[1,0.75,0],[0.75,1,0],[0.5,1,0],[0.25,1,0],[0,0.75,0],[0,0.5,0],[0,0.25,0]];verticalLabelPosition=bottom;html=1;verticalAlign=top;aspect=fixed;align=center;pointerEvents=1;shape=mxgraph.cisco19.rect;prIcon=secure_catalyst_switch_color2;fillColor=#FAFAFA;strokeColor=#005073;" vertex="1" parent="1">
          <mxGeometry x="400" y="130" width="50" height="50" as="geometry" />
        </mxCell>
      </root>
    </mxGraphModel>
  </diagram>
</mxfile>
